<mxfile host="app.diagrams.net" modified="2024-07-22T10:54:45.866Z" agent="Mozilla/5.0 (Windows NT 10.0; Win64; x64) AppleWebKit/537.36 (KHTML, like Gecko) Chrome/126.0.0.0 Safari/537.36" etag="Lxdr0ILFB_zRlTh7gNJq" version="24.7.1" type="device">
  <diagram name="Page-1" id="fOybly9ZyyvPkMbGzWnT">
    <mxGraphModel dx="2085" dy="1755" grid="1" gridSize="10" guides="1" tooltips="1" connect="1" arrows="1" fold="1" page="1" pageScale="1" pageWidth="850" pageHeight="1100" math="0" shadow="0">
      <root>
        <mxCell id="0" />
        <mxCell id="1" parent="0" />
        <mxCell id="L5s7wlTGIN_2you4-RKq-21" value="Student" style="rounded=1;arcSize=10;whiteSpace=wrap;html=1;align=center;" vertex="1" parent="1">
          <mxGeometry x="160" y="80" width="100" height="40" as="geometry" />
        </mxCell>
        <mxCell id="L5s7wlTGIN_2you4-RKq-22" value="Book" style="rounded=1;arcSize=10;whiteSpace=wrap;html=1;align=center;" vertex="1" parent="1">
          <mxGeometry x="640" y="80" width="100" height="40" as="geometry" />
        </mxCell>
        <mxCell id="L5s7wlTGIN_2you4-RKq-23" value="Reads" style="shape=rhombus;perimeter=rhombusPerimeter;whiteSpace=wrap;html=1;align=center;direction=west;" vertex="1" parent="1">
          <mxGeometry x="400" y="70" width="120" height="60" as="geometry" />
        </mxCell>
        <mxCell id="L5s7wlTGIN_2you4-RKq-29" value="" style="endArrow=none;html=1;rounded=0;exitX=1;exitY=0.5;exitDx=0;exitDy=0;" edge="1" parent="1" source="L5s7wlTGIN_2you4-RKq-21">
          <mxGeometry relative="1" as="geometry">
            <mxPoint x="260" y="100" as="sourcePoint" />
            <mxPoint x="400" y="100" as="targetPoint" />
          </mxGeometry>
        </mxCell>
        <mxCell id="L5s7wlTGIN_2you4-RKq-30" value="" style="endArrow=none;html=1;rounded=0;" edge="1" parent="1">
          <mxGeometry relative="1" as="geometry">
            <mxPoint x="520" y="100" as="sourcePoint" />
            <mxPoint x="640" y="100" as="targetPoint" />
            <Array as="points">
              <mxPoint x="600" y="99.5" />
            </Array>
          </mxGeometry>
        </mxCell>
        <mxCell id="L5s7wlTGIN_2you4-RKq-32" value="stu_id" style="ellipse;shape=doubleEllipse;margin=3;whiteSpace=wrap;html=1;align=center;" vertex="1" parent="1">
          <mxGeometry x="-40" y="100" width="100" height="40" as="geometry" />
        </mxCell>
        <mxCell id="L5s7wlTGIN_2you4-RKq-36" value="D.O.B" style="ellipse;whiteSpace=wrap;html=1;align=center;" vertex="1" parent="1">
          <mxGeometry x="-20" y="10" width="100" height="40" as="geometry" />
        </mxCell>
        <mxCell id="L5s7wlTGIN_2you4-RKq-37" value="Age" style="ellipse;whiteSpace=wrap;html=1;align=center;dashed=1;" vertex="1" parent="1">
          <mxGeometry x="100" y="-20" width="100" height="40" as="geometry" />
        </mxCell>
        <mxCell id="L5s7wlTGIN_2you4-RKq-39" value="" style="endArrow=none;html=1;rounded=0;exitX=0.992;exitY=0.735;exitDx=0;exitDy=0;exitPerimeter=0;entryX=0;entryY=0.5;entryDx=0;entryDy=0;" edge="1" parent="1" source="L5s7wlTGIN_2you4-RKq-32" target="L5s7wlTGIN_2you4-RKq-21">
          <mxGeometry relative="1" as="geometry">
            <mxPoint x="20" y="70" as="sourcePoint" />
            <mxPoint x="210" y="80" as="targetPoint" />
            <Array as="points" />
          </mxGeometry>
        </mxCell>
        <mxCell id="L5s7wlTGIN_2you4-RKq-40" style="edgeStyle=orthogonalEdgeStyle;rounded=0;orthogonalLoop=1;jettySize=auto;html=1;entryX=0.424;entryY=0.025;entryDx=0;entryDy=0;entryPerimeter=0;strokeColor=none;" edge="1" parent="1" source="L5s7wlTGIN_2you4-RKq-36" target="L5s7wlTGIN_2you4-RKq-21">
          <mxGeometry relative="1" as="geometry" />
        </mxCell>
        <mxCell id="L5s7wlTGIN_2you4-RKq-41" value="" style="endArrow=none;html=1;rounded=0;entryX=0;entryY=0.5;entryDx=0;entryDy=0;exitX=0.5;exitY=1;exitDx=0;exitDy=0;" edge="1" parent="1" source="L5s7wlTGIN_2you4-RKq-36" target="L5s7wlTGIN_2you4-RKq-21">
          <mxGeometry relative="1" as="geometry">
            <mxPoint x="120" y="-10" as="sourcePoint" />
            <mxPoint x="200" y="40" as="targetPoint" />
          </mxGeometry>
        </mxCell>
        <mxCell id="L5s7wlTGIN_2you4-RKq-42" value="" style="endArrow=none;html=1;rounded=0;exitX=0.5;exitY=1;exitDx=0;exitDy=0;entryX=0;entryY=0.5;entryDx=0;entryDy=0;" edge="1" parent="1" source="L5s7wlTGIN_2you4-RKq-37" target="L5s7wlTGIN_2you4-RKq-21">
          <mxGeometry relative="1" as="geometry">
            <mxPoint x="340" y="50" as="sourcePoint" />
            <mxPoint x="200" y="82" as="targetPoint" />
          </mxGeometry>
        </mxCell>
        <mxCell id="L5s7wlTGIN_2you4-RKq-43" value="phone no." style="ellipse;whiteSpace=wrap;html=1;align=center;" vertex="1" parent="1">
          <mxGeometry x="70" y="180" width="100" height="40" as="geometry" />
        </mxCell>
        <mxCell id="L5s7wlTGIN_2you4-RKq-44" value="Name" style="ellipse;whiteSpace=wrap;html=1;align=center;" vertex="1" parent="1">
          <mxGeometry x="210" y="210" width="100" height="40" as="geometry" />
        </mxCell>
        <mxCell id="L5s7wlTGIN_2you4-RKq-45" value="First name" style="ellipse;whiteSpace=wrap;html=1;align=center;" vertex="1" parent="1">
          <mxGeometry x="70" y="320" width="100" height="40" as="geometry" />
        </mxCell>
        <mxCell id="L5s7wlTGIN_2you4-RKq-46" value="Author" style="ellipse;whiteSpace=wrap;html=1;align=center;" vertex="1" parent="1">
          <mxGeometry x="530" y="-20" width="100" height="40" as="geometry" />
        </mxCell>
        <mxCell id="L5s7wlTGIN_2you4-RKq-47" value="Middle name" style="ellipse;whiteSpace=wrap;html=1;align=center;" vertex="1" parent="1">
          <mxGeometry x="220" y="320" width="100" height="40" as="geometry" />
        </mxCell>
        <mxCell id="L5s7wlTGIN_2you4-RKq-48" value="Last name" style="ellipse;whiteSpace=wrap;html=1;align=center;" vertex="1" parent="1">
          <mxGeometry x="370" y="320" width="100" height="40" as="geometry" />
        </mxCell>
        <mxCell id="L5s7wlTGIN_2you4-RKq-49" value="Book_id" style="ellipse;shape=doubleEllipse;margin=3;whiteSpace=wrap;html=1;align=center;" vertex="1" parent="1">
          <mxGeometry x="700" y="-20" width="100" height="40" as="geometry" />
        </mxCell>
        <mxCell id="L5s7wlTGIN_2you4-RKq-50" value="Book name" style="ellipse;whiteSpace=wrap;html=1;align=center;" vertex="1" parent="1">
          <mxGeometry x="540" y="190" width="100" height="40" as="geometry" />
        </mxCell>
        <mxCell id="L5s7wlTGIN_2you4-RKq-51" value="Price" style="ellipse;whiteSpace=wrap;html=1;align=center;" vertex="1" parent="1">
          <mxGeometry x="680" y="240" width="100" height="40" as="geometry" />
        </mxCell>
        <mxCell id="L5s7wlTGIN_2you4-RKq-52" value="" style="endArrow=none;html=1;rounded=0;entryX=0.746;entryY=0.032;entryDx=0;entryDy=0;entryPerimeter=0;exitX=0.5;exitY=1;exitDx=0;exitDy=0;" edge="1" parent="1" source="L5s7wlTGIN_2you4-RKq-21" target="L5s7wlTGIN_2you4-RKq-43">
          <mxGeometry relative="1" as="geometry">
            <mxPoint x="210" y="130" as="sourcePoint" />
            <mxPoint x="540" y="200" as="targetPoint" />
          </mxGeometry>
        </mxCell>
        <mxCell id="L5s7wlTGIN_2you4-RKq-53" value="" style="endArrow=none;html=1;rounded=0;entryX=0.5;entryY=0;entryDx=0;entryDy=0;exitX=0.5;exitY=1;exitDx=0;exitDy=0;" edge="1" parent="1" source="L5s7wlTGIN_2you4-RKq-21" target="L5s7wlTGIN_2you4-RKq-44">
          <mxGeometry relative="1" as="geometry">
            <mxPoint x="230" y="140" as="sourcePoint" />
            <mxPoint x="540" y="200" as="targetPoint" />
          </mxGeometry>
        </mxCell>
        <mxCell id="L5s7wlTGIN_2you4-RKq-78" value="" style="endArrow=none;html=1;rounded=0;exitX=0.5;exitY=1;exitDx=0;exitDy=0;entryX=0.5;entryY=0;entryDx=0;entryDy=0;" edge="1" parent="1" source="L5s7wlTGIN_2you4-RKq-44" target="L5s7wlTGIN_2you4-RKq-45">
          <mxGeometry relative="1" as="geometry">
            <mxPoint x="380" y="210" as="sourcePoint" />
            <mxPoint x="540" y="210" as="targetPoint" />
          </mxGeometry>
        </mxCell>
        <mxCell id="L5s7wlTGIN_2you4-RKq-79" value="" style="endArrow=none;html=1;rounded=0;exitX=0.5;exitY=1;exitDx=0;exitDy=0;entryX=0.5;entryY=0;entryDx=0;entryDy=0;" edge="1" parent="1" source="L5s7wlTGIN_2you4-RKq-44" target="L5s7wlTGIN_2you4-RKq-47">
          <mxGeometry relative="1" as="geometry">
            <mxPoint x="380" y="210" as="sourcePoint" />
            <mxPoint x="540" y="210" as="targetPoint" />
          </mxGeometry>
        </mxCell>
        <mxCell id="L5s7wlTGIN_2you4-RKq-80" value="" style="endArrow=none;html=1;rounded=0;exitX=0.5;exitY=1;exitDx=0;exitDy=0;entryX=0.5;entryY=0;entryDx=0;entryDy=0;" edge="1" parent="1" source="L5s7wlTGIN_2you4-RKq-44" target="L5s7wlTGIN_2you4-RKq-48">
          <mxGeometry relative="1" as="geometry">
            <mxPoint x="380" y="210" as="sourcePoint" />
            <mxPoint x="540" y="210" as="targetPoint" />
          </mxGeometry>
        </mxCell>
        <mxCell id="L5s7wlTGIN_2you4-RKq-81" value="" style="endArrow=none;html=1;rounded=0;exitX=0.5;exitY=0;exitDx=0;exitDy=0;entryX=0.5;entryY=1;entryDx=0;entryDy=0;" edge="1" parent="1" source="L5s7wlTGIN_2you4-RKq-22" target="L5s7wlTGIN_2you4-RKq-46">
          <mxGeometry relative="1" as="geometry">
            <mxPoint x="380" y="210" as="sourcePoint" />
            <mxPoint x="540" y="210" as="targetPoint" />
          </mxGeometry>
        </mxCell>
        <mxCell id="L5s7wlTGIN_2you4-RKq-82" value="" style="endArrow=none;html=1;rounded=0;exitX=0.5;exitY=1;exitDx=0;exitDy=0;entryX=0.5;entryY=0;entryDx=0;entryDy=0;" edge="1" parent="1" source="L5s7wlTGIN_2you4-RKq-49" target="L5s7wlTGIN_2you4-RKq-22">
          <mxGeometry relative="1" as="geometry">
            <mxPoint x="380" y="210" as="sourcePoint" />
            <mxPoint x="540" y="210" as="targetPoint" />
          </mxGeometry>
        </mxCell>
        <mxCell id="L5s7wlTGIN_2you4-RKq-83" value="" style="endArrow=none;html=1;rounded=0;exitX=0.45;exitY=1.005;exitDx=0;exitDy=0;exitPerimeter=0;entryX=0.5;entryY=0;entryDx=0;entryDy=0;" edge="1" parent="1" source="L5s7wlTGIN_2you4-RKq-22" target="L5s7wlTGIN_2you4-RKq-50">
          <mxGeometry relative="1" as="geometry">
            <mxPoint x="380" y="210" as="sourcePoint" />
            <mxPoint x="540" y="210" as="targetPoint" />
          </mxGeometry>
        </mxCell>
        <mxCell id="L5s7wlTGIN_2you4-RKq-84" value="" style="endArrow=none;html=1;rounded=0;exitX=0.435;exitY=1.005;exitDx=0;exitDy=0;exitPerimeter=0;entryX=0.5;entryY=0;entryDx=0;entryDy=0;" edge="1" parent="1" source="L5s7wlTGIN_2you4-RKq-22" target="L5s7wlTGIN_2you4-RKq-51">
          <mxGeometry relative="1" as="geometry">
            <mxPoint x="380" y="210" as="sourcePoint" />
            <mxPoint x="540" y="210" as="targetPoint" />
          </mxGeometry>
        </mxCell>
        <mxCell id="L5s7wlTGIN_2you4-RKq-90" value="one" style="text;html=1;align=center;verticalAlign=middle;whiteSpace=wrap;rounded=0;" vertex="1" parent="1">
          <mxGeometry x="300" y="70" width="60" height="30" as="geometry" />
        </mxCell>
        <mxCell id="L5s7wlTGIN_2you4-RKq-91" value="many" style="text;html=1;align=center;verticalAlign=middle;whiteSpace=wrap;rounded=0;" vertex="1" parent="1">
          <mxGeometry x="550" y="70" width="60" height="30" as="geometry" />
        </mxCell>
        <mxCell id="L5s7wlTGIN_2you4-RKq-92" value="publisher" style="rounded=1;arcSize=10;whiteSpace=wrap;html=1;align=center;" vertex="1" parent="1">
          <mxGeometry x="690" y="390" width="100" height="40" as="geometry" />
        </mxCell>
        <mxCell id="L5s7wlTGIN_2you4-RKq-94" value="published by" style="shape=rhombus;perimeter=rhombusPerimeter;whiteSpace=wrap;html=1;align=center;" vertex="1" parent="1">
          <mxGeometry x="860" y="230" width="120" height="60" as="geometry" />
        </mxCell>
        <mxCell id="L5s7wlTGIN_2you4-RKq-95" value="" style="endArrow=none;html=1;rounded=0;exitX=1;exitY=0.5;exitDx=0;exitDy=0;entryX=0.5;entryY=0;entryDx=0;entryDy=0;" edge="1" parent="1" source="L5s7wlTGIN_2you4-RKq-22" target="L5s7wlTGIN_2you4-RKq-94">
          <mxGeometry relative="1" as="geometry">
            <mxPoint x="490" y="320" as="sourcePoint" />
            <mxPoint x="650" y="320" as="targetPoint" />
          </mxGeometry>
        </mxCell>
        <mxCell id="L5s7wlTGIN_2you4-RKq-96" value="" style="endArrow=none;html=1;rounded=0;entryX=0.5;entryY=1;entryDx=0;entryDy=0;exitX=1;exitY=0.5;exitDx=0;exitDy=0;" edge="1" parent="1" source="L5s7wlTGIN_2you4-RKq-92" target="L5s7wlTGIN_2you4-RKq-94">
          <mxGeometry relative="1" as="geometry">
            <mxPoint x="490" y="320" as="sourcePoint" />
            <mxPoint x="650" y="320" as="targetPoint" />
          </mxGeometry>
        </mxCell>
        <mxCell id="L5s7wlTGIN_2you4-RKq-97" value="one" style="text;html=1;align=center;verticalAlign=middle;whiteSpace=wrap;rounded=0;" vertex="1" parent="1">
          <mxGeometry x="840" y="350" width="60" height="30" as="geometry" />
        </mxCell>
        <mxCell id="L5s7wlTGIN_2you4-RKq-98" value="many" style="text;html=1;align=center;verticalAlign=middle;whiteSpace=wrap;rounded=0;" vertex="1" parent="1">
          <mxGeometry x="810" y="140" width="60" height="30" as="geometry" />
        </mxCell>
        <mxCell id="L5s7wlTGIN_2you4-RKq-99" value="Name" style="ellipse;whiteSpace=wrap;html=1;align=center;" vertex="1" parent="1">
          <mxGeometry x="540" y="490" width="100" height="40" as="geometry" />
        </mxCell>
        <mxCell id="L5s7wlTGIN_2you4-RKq-101" value="Pub_id" style="ellipse;whiteSpace=wrap;html=1;align=center;fontStyle=4;" vertex="1" parent="1">
          <mxGeometry x="690" y="500" width="100" height="40" as="geometry" />
        </mxCell>
        <mxCell id="L5s7wlTGIN_2you4-RKq-102" value="" style="endArrow=none;html=1;rounded=0;exitX=0.5;exitY=1;exitDx=0;exitDy=0;entryX=1;entryY=0;entryDx=0;entryDy=0;" edge="1" parent="1" source="L5s7wlTGIN_2you4-RKq-92" target="L5s7wlTGIN_2you4-RKq-99">
          <mxGeometry relative="1" as="geometry">
            <mxPoint x="490" y="370" as="sourcePoint" />
            <mxPoint x="650" y="370" as="targetPoint" />
          </mxGeometry>
        </mxCell>
        <mxCell id="L5s7wlTGIN_2you4-RKq-103" value="Address" style="ellipse;whiteSpace=wrap;html=1;align=center;" vertex="1" parent="1">
          <mxGeometry x="840" y="510" width="100" height="40" as="geometry" />
        </mxCell>
        <mxCell id="L5s7wlTGIN_2you4-RKq-104" value="" style="endArrow=none;html=1;rounded=0;exitX=0.5;exitY=1;exitDx=0;exitDy=0;entryX=0.5;entryY=0;entryDx=0;entryDy=0;" edge="1" parent="1" source="L5s7wlTGIN_2you4-RKq-92" target="L5s7wlTGIN_2you4-RKq-101">
          <mxGeometry relative="1" as="geometry">
            <mxPoint x="490" y="370" as="sourcePoint" />
            <mxPoint x="650" y="370" as="targetPoint" />
          </mxGeometry>
        </mxCell>
        <mxCell id="L5s7wlTGIN_2you4-RKq-105" value="" style="endArrow=none;html=1;rounded=0;entryX=0.5;entryY=1;entryDx=0;entryDy=0;exitX=0.5;exitY=0;exitDx=0;exitDy=0;" edge="1" parent="1" source="L5s7wlTGIN_2you4-RKq-103" target="L5s7wlTGIN_2you4-RKq-92">
          <mxGeometry relative="1" as="geometry">
            <mxPoint x="490" y="370" as="sourcePoint" />
            <mxPoint x="650" y="370" as="targetPoint" />
          </mxGeometry>
        </mxCell>
        <mxCell id="L5s7wlTGIN_2you4-RKq-106" value="Librarian" style="rounded=1;arcSize=10;whiteSpace=wrap;html=1;align=center;" vertex="1" parent="1">
          <mxGeometry x="340" y="-260" width="100" height="40" as="geometry" />
        </mxCell>
        <mxCell id="L5s7wlTGIN_2you4-RKq-107" value="Manages" style="shape=rhombus;perimeter=rhombusPerimeter;whiteSpace=wrap;html=1;align=center;" vertex="1" parent="1">
          <mxGeometry x="290" y="-110" width="120" height="60" as="geometry" />
        </mxCell>
        <mxCell id="L5s7wlTGIN_2you4-RKq-108" value="" style="endArrow=none;html=1;rounded=0;exitX=0.5;exitY=1;exitDx=0;exitDy=0;entryX=0.75;entryY=0;entryDx=0;entryDy=0;" edge="1" parent="1" source="L5s7wlTGIN_2you4-RKq-107" target="L5s7wlTGIN_2you4-RKq-21">
          <mxGeometry relative="1" as="geometry">
            <mxPoint x="420" as="sourcePoint" />
            <mxPoint x="580" as="targetPoint" />
          </mxGeometry>
        </mxCell>
        <mxCell id="L5s7wlTGIN_2you4-RKq-109" value="" style="endArrow=none;html=1;rounded=0;exitX=0.5;exitY=1;exitDx=0;exitDy=0;entryX=0.5;entryY=0;entryDx=0;entryDy=0;" edge="1" parent="1" source="L5s7wlTGIN_2you4-RKq-106" target="L5s7wlTGIN_2you4-RKq-107">
          <mxGeometry relative="1" as="geometry">
            <mxPoint x="420" as="sourcePoint" />
            <mxPoint x="580" as="targetPoint" />
          </mxGeometry>
        </mxCell>
        <mxCell id="L5s7wlTGIN_2you4-RKq-110" value="one" style="text;html=1;align=center;verticalAlign=middle;whiteSpace=wrap;rounded=0;" vertex="1" parent="1">
          <mxGeometry x="360" y="-190" width="60" height="30" as="geometry" />
        </mxCell>
        <mxCell id="L5s7wlTGIN_2you4-RKq-111" value="many" style="text;html=1;align=center;verticalAlign=middle;whiteSpace=wrap;rounded=0;" vertex="1" parent="1">
          <mxGeometry x="300" y="-15" width="60" height="30" as="geometry" />
        </mxCell>
        <mxCell id="L5s7wlTGIN_2you4-RKq-112" value="user_id" style="ellipse;whiteSpace=wrap;html=1;align=center;" vertex="1" parent="1">
          <mxGeometry x="280" y="-380" width="100" height="40" as="geometry" />
        </mxCell>
        <mxCell id="L5s7wlTGIN_2you4-RKq-113" value="Password" style="ellipse;whiteSpace=wrap;html=1;align=center;" vertex="1" parent="1">
          <mxGeometry x="450" y="-380" width="100" height="40" as="geometry" />
        </mxCell>
        <mxCell id="L5s7wlTGIN_2you4-RKq-114" value="" style="endArrow=none;html=1;rounded=0;exitX=0.5;exitY=1;exitDx=0;exitDy=0;entryX=0.5;entryY=0;entryDx=0;entryDy=0;" edge="1" parent="1" source="L5s7wlTGIN_2you4-RKq-112" target="L5s7wlTGIN_2you4-RKq-106">
          <mxGeometry relative="1" as="geometry">
            <mxPoint x="420" y="-110" as="sourcePoint" />
            <mxPoint x="580" y="-110" as="targetPoint" />
          </mxGeometry>
        </mxCell>
        <mxCell id="L5s7wlTGIN_2you4-RKq-116" value="" style="endArrow=none;html=1;rounded=0;exitX=0.5;exitY=1;exitDx=0;exitDy=0;entryX=0.5;entryY=0;entryDx=0;entryDy=0;" edge="1" parent="1" source="L5s7wlTGIN_2you4-RKq-113" target="L5s7wlTGIN_2you4-RKq-106">
          <mxGeometry relative="1" as="geometry">
            <mxPoint x="420" y="-110" as="sourcePoint" />
            <mxPoint x="580" y="-110" as="targetPoint" />
          </mxGeometry>
        </mxCell>
        <mxCell id="L5s7wlTGIN_2you4-RKq-117" value="name" style="ellipse;whiteSpace=wrap;html=1;align=center;" vertex="1" parent="1">
          <mxGeometry x="160" y="-290" width="100" height="40" as="geometry" />
        </mxCell>
        <mxCell id="L5s7wlTGIN_2you4-RKq-118" value="" style="endArrow=none;html=1;rounded=0;exitX=1;exitY=0.5;exitDx=0;exitDy=0;entryX=0;entryY=0.25;entryDx=0;entryDy=0;" edge="1" parent="1" source="L5s7wlTGIN_2you4-RKq-117" target="L5s7wlTGIN_2you4-RKq-106">
          <mxGeometry relative="1" as="geometry">
            <mxPoint x="350" y="-150" as="sourcePoint" />
            <mxPoint x="510" y="-150" as="targetPoint" />
          </mxGeometry>
        </mxCell>
      </root>
    </mxGraphModel>
  </diagram>
</mxfile>
